<svg width="134" height="134" viewBox="0 0 134 134" fill="none" xmlns="http://www.w3.org/2000/svg">
<path d="M56.4408 131.514L56.4406 131.514C25.2938 126.499 1.5 99.4863 1.5 66.9231C1.5 30.7908 30.7909 1.5 66.9231 1.5C103.055 1.5 132.346 30.7908 132.346 66.9231V66.9269C132.346 99.9687 107.852 127.287 76.0343 131.721C73.0583 132.135 70.0137 132.35 66.9231 132.35C63.3541 132.35 59.8538 132.064 56.4408 131.514Z" stroke="white" stroke-width="3"/>
<path d="M74.8221 43.7001V55.4009H88.997L86.7526 71.1658H74.8221V107.483C72.4294 107.824 69.9821 108 67.4985 108C64.6302 108 61.8164 107.765 59.0723 107.313V71.1658H46V55.4009H59.0723V41.0866C59.0723 32.2035 66.1234 25 74.8252 25V25.0093C74.8494 25.0093 74.8736 25 74.8978 25H89V38.6307H79.7864C77.0453 38.6307 74.8252 40.8979 74.8252 43.697L74.8221 43.7001Z" fill="white"/>
</svg>
