<svg width="135" height="134" viewBox="0 0 135 134" fill="none" xmlns="http://www.w3.org/2000/svg">
<path d="M57.1331 131.514L57.1328 131.514C25.9861 126.499 2.19226 99.4863 2.19226 66.9231C2.19226 30.7908 31.4831 1.5 67.6154 1.5C103.748 1.5 133.038 30.7908 133.038 66.9231V66.9269C133.038 99.9687 108.544 127.287 76.7266 131.721C73.7506 132.135 70.7059 132.35 67.6154 132.35C64.0464 132.35 60.5461 132.064 57.1331 131.514Z" stroke="white" stroke-width="3"/>
<path d="M88.5716 26.7523H46.6551C35.0748 26.7523 25.6564 36.1707 25.6564 47.751V86.099C25.6564 97.6793 35.0748 107.098 46.6551 107.098H88.5716C100.152 107.098 109.57 97.6793 109.57 86.099V47.751C109.57 36.1707 100.152 26.7523 88.5716 26.7523ZM33.0631 47.751C33.0631 40.2556 39.1597 34.159 46.6551 34.159H88.5716C96.067 34.159 102.164 40.2556 102.164 47.751V86.099C102.164 93.5944 96.067 99.6909 88.5716 99.6909H46.6551C39.1597 99.6909 33.0631 93.5944 33.0631 86.099V47.751Z" fill="white"/>
<path d="M67.6115 86.4613C78.3826 86.4613 87.1458 77.698 87.1458 66.9269C87.1458 56.1559 78.3826 47.3926 67.6115 47.3926C56.8405 47.3926 48.0771 56.1559 48.0771 66.9269C48.0771 77.698 56.8405 86.4613 67.6115 86.4613ZM67.6115 54.8032C74.2977 54.8032 79.7352 60.2408 79.7352 66.9269C79.7352 73.6131 74.2977 79.0506 67.6115 79.0506C60.9254 79.0506 55.4878 73.6131 55.4878 66.9269C55.4878 60.2408 60.9254 54.8032 67.6115 54.8032Z" fill="white"/>
<path d="M88.9571 50.5449C91.8589 50.5449 94.2212 48.1826 94.2212 45.2808C94.2212 42.3789 91.8589 40.0166 88.9571 40.0166C86.0553 40.0166 83.693 42.3789 83.693 45.2808C83.693 48.1826 86.0553 50.5449 88.9571 50.5449Z" fill="white"/>
</svg>
