<svg width="135" height="134" viewBox="0 0 135 134" fill="none" xmlns="http://www.w3.org/2000/svg">
<path d="M57.2869 131.514L57.2867 131.514C26.1399 126.499 2.34619 99.4863 2.34619 66.9231C2.34619 30.7908 31.6369 1.5 67.7691 1.5C103.901 1.5 133.192 30.7908 133.192 66.9231V66.9269C133.192 99.9687 108.698 127.287 76.8804 131.721C73.9044 132.135 70.8597 132.35 67.7691 132.35C64.2001 132.35 60.6999 132.064 57.2869 131.514Z" stroke="white" stroke-width="3"/>
<path d="M107.327 42.4098C105.47 44.2865 102.895 45.4465 100.044 45.4465C99.6815 45.4465 99.3194 45.4272 98.9687 45.3887C101.944 43.6044 104.241 40.8105 105.385 37.4771C105.385 37.4771 105.389 37.4771 105.389 37.4732C105.547 37.0262 105.682 36.5753 105.79 36.109C103.435 38.6255 100.217 40.3288 96.6062 40.7334C96.0513 40.7989 95.4887 40.8298 94.9184 40.8298C94.7373 40.8298 94.5638 40.8259 94.3904 40.8144C93.1688 39.5311 91.7122 38.4713 90.0975 37.6929C88.2978 36.8142 86.2861 36.2978 84.1627 36.2323C83.9893 36.2208 83.816 36.2169 83.6349 36.2169C81.8352 36.2169 80.1087 36.5368 78.5133 37.1264C78.1048 37.2767 77.7079 37.4385 77.3186 37.6274C72.2626 39.9974 68.7634 45.1343 68.7634 51.0883C68.7634 52.3099 68.9137 53.4968 69.1873 54.6298C67.6381 54.5682 66.1044 54.4179 64.6015 54.1943C64.1198 54.1173 63.638 54.0363 63.1601 53.9439C59.3257 53.2309 55.6686 52.0055 52.2697 50.3407C49.2291 48.8531 46.3928 47.0188 43.8147 44.8838C41.6451 43.0957 39.6605 41.0995 37.8878 38.9183C37.8107 38.8259 37.7335 38.7295 37.6603 38.637C37.5563 38.795 37.46 38.953 37.3752 39.1187C36.1343 41.2884 35.433 43.7971 35.433 46.4716C35.433 46.5525 35.4329 46.6411 35.4367 46.7221C35.4675 48.726 35.8914 50.6335 36.6506 52.3677C36.9743 53.1384 37.3675 53.8668 37.8184 54.5566C39.1479 56.6029 40.9629 58.3062 43.1055 59.4855C43.2019 59.5471 43.3021 59.5972 43.4023 59.6435C43.2481 59.6743 43.0902 59.7013 42.9322 59.7167C42.4929 59.7745 42.0382 59.8053 41.5834 59.8053C39.302 59.8053 37.1787 59.0924 35.4407 57.8785C35.4291 58.0056 35.429 58.1367 35.429 58.2677C35.429 62.5145 37.2094 66.345 40.0611 69.0464C42.2809 71.166 45.1519 72.588 48.3428 73.0042C47.1944 73.4242 45.9534 73.6516 44.6624 73.6516C43.2635 73.6516 41.9224 73.3857 40.697 72.8963C42.5236 78.8348 47.969 83.1895 54.4586 83.3821C50.4932 87.5017 44.9244 90.0606 38.7624 90.0606C34.9318 90.0606 31.3325 89.0702 28.2111 87.336C35.7142 93.8295 45.4986 97.7525 56.2003 97.7525C79.8504 97.7525 99.0188 78.5843 99.0188 54.9343C99.0188 53.6317 98.9609 52.3446 98.8453 51.0729C102.757 49.5275 105.859 46.3714 107.327 42.4136V42.4098Z" fill="white"/>
</svg>
